<mxfile host="app.diagrams.net" modified="2024-04-08T10:03:18.549Z" agent="Mozilla/5.0 (Windows NT 10.0; Win64; x64) AppleWebKit/537.36 (KHTML, like Gecko) Chrome/123.0.0.0 Safari/537.36" etag="0cKcZqXTlyoo4FcaUysN" version="24.2.1" type="github">
  <diagram name="第 1 页" id="3holGEopGNu-6rJ0KDUA">
    <mxGraphModel dx="529" dy="303" grid="1" gridSize="10" guides="1" tooltips="1" connect="1" arrows="1" fold="1" page="1" pageScale="1" pageWidth="827" pageHeight="1169" background="none" math="0" shadow="1">
      <root>
        <mxCell id="0" />
        <mxCell id="1" parent="0" />
        <mxCell id="nhPjuDX4u7KFY1a2a7d--13" value="" style="ellipse;whiteSpace=wrap;html=1;aspect=fixed;dashed=1;strokeWidth=0;fillColor=#f5f5f5;fontColor=#333333;strokeColor=#666666;" vertex="1" parent="1">
          <mxGeometry x="240" y="170" width="220" height="220" as="geometry" />
        </mxCell>
        <mxCell id="nhPjuDX4u7KFY1a2a7d--8" value="" style="ellipse;whiteSpace=wrap;html=1;aspect=fixed;fillColor=#f9f7ed;strokeColor=#36393d;" vertex="1" parent="1">
          <mxGeometry x="259" y="180" width="180" height="180" as="geometry" />
        </mxCell>
        <mxCell id="nhPjuDX4u7KFY1a2a7d--5" value="" style="ellipse;whiteSpace=wrap;html=1;aspect=fixed;strokeColor=#666666;fillColor=#f5f5f5;fontColor=#333333;" vertex="1" parent="1">
          <mxGeometry x="284" y="195" width="130" height="130" as="geometry" />
        </mxCell>
        <mxCell id="nhPjuDX4u7KFY1a2a7d--1" value="" style="ellipse;whiteSpace=wrap;html=1;aspect=fixed;strokeColor=#A9C4EB;strokeWidth=2;perimeterSpacing=0;" vertex="1" parent="1">
          <mxGeometry x="309" y="210" width="80" height="80" as="geometry" />
        </mxCell>
        <mxCell id="nhPjuDX4u7KFY1a2a7d--6" value="" style="endArrow=classic;startArrow=classic;html=1;rounded=0;entryX=1;entryY=0.5;entryDx=0;entryDy=0;exitX=1;exitY=0.5;exitDx=0;exitDy=0;opacity=60;strokeColor=#2EC0FF;" edge="1" parent="1" source="nhPjuDX4u7KFY1a2a7d--1" target="nhPjuDX4u7KFY1a2a7d--5">
          <mxGeometry width="50" height="50" relative="1" as="geometry">
            <mxPoint x="270" y="360" as="sourcePoint" />
            <mxPoint x="320" y="310" as="targetPoint" />
          </mxGeometry>
        </mxCell>
        <mxCell id="nhPjuDX4u7KFY1a2a7d--7" value="&lt;font style=&quot;font-size: 13px;&quot;&gt;in-process&lt;/font&gt;" style="text;html=1;align=center;verticalAlign=middle;whiteSpace=wrap;rounded=0;" vertex="1" parent="1">
          <mxGeometry x="303.5" y="290" width="91" height="30" as="geometry" />
        </mxCell>
        <mxCell id="nhPjuDX4u7KFY1a2a7d--9" value="&lt;font style=&quot;font-size: 13px;&quot;&gt;Start-Similarity&lt;/font&gt;" style="text;html=1;align=center;verticalAlign=middle;whiteSpace=wrap;rounded=0;" vertex="1" parent="1">
          <mxGeometry x="294" y="320" width="110" height="30" as="geometry" />
        </mxCell>
        <mxCell id="nhPjuDX4u7KFY1a2a7d--11" value="&lt;font style=&quot;font-size: 13px;&quot;&gt;End- Similarity&lt;/font&gt;" style="text;html=1;align=center;verticalAlign=middle;whiteSpace=wrap;rounded=0;" vertex="1" parent="1">
          <mxGeometry x="319" y="245" width="60" height="30" as="geometry" />
        </mxCell>
        <mxCell id="nhPjuDX4u7KFY1a2a7d--12" value="" style="endArrow=classic;startArrow=classic;html=1;rounded=0;exitX=0.964;exitY=0.687;exitDx=0;exitDy=0;exitPerimeter=0;opacity=80;strokeColor=#61A5FF;" edge="1" parent="1" source="nhPjuDX4u7KFY1a2a7d--5" target="nhPjuDX4u7KFY1a2a7d--8">
          <mxGeometry width="50" height="50" relative="1" as="geometry">
            <mxPoint x="399" y="260" as="sourcePoint" />
            <mxPoint x="424" y="270" as="targetPoint" />
          </mxGeometry>
        </mxCell>
        <mxCell id="nhPjuDX4u7KFY1a2a7d--14" value="Negative" style="text;html=1;align=center;verticalAlign=middle;whiteSpace=wrap;rounded=0;" vertex="1" parent="1">
          <mxGeometry x="319" y="360" width="60" height="30" as="geometry" />
        </mxCell>
        <mxCell id="nhPjuDX4u7KFY1a2a7d--16" value="" style="endArrow=classic;html=1;rounded=0;entryX=0;entryY=1;entryDx=0;entryDy=0;exitX=0;exitY=0.75;exitDx=0;exitDy=0;opacity=80;strokeColor=#7AFFE0;" edge="1" parent="1" source="nhPjuDX4u7KFY1a2a7d--9" target="nhPjuDX4u7KFY1a2a7d--13">
          <mxGeometry width="50" height="50" relative="1" as="geometry">
            <mxPoint x="250" y="290" as="sourcePoint" />
            <mxPoint x="300" y="240" as="targetPoint" />
          </mxGeometry>
        </mxCell>
        <mxCell id="nhPjuDX4u7KFY1a2a7d--17" value="" style="endArrow=classic;html=1;rounded=0;strokeColor=#30FFC1;" edge="1" parent="1" source="nhPjuDX4u7KFY1a2a7d--1">
          <mxGeometry width="50" height="50" relative="1" as="geometry">
            <mxPoint x="300" y="290" as="sourcePoint" />
            <mxPoint x="350" y="240" as="targetPoint" />
          </mxGeometry>
        </mxCell>
      </root>
    </mxGraphModel>
  </diagram>
</mxfile>
